<svg width="85" height="85" viewBox="0 0 85 85" fill="none" xmlns="http://www.w3.org/2000/svg">
<path d="M27.9861 71.0252C28.343 71.1575 28.7394 70.9734 28.8722 70.6157C29.0036 70.2583 28.8202 69.8617 28.4626 69.7296L25.5893 68.6729C39.0232 64.9247 48.7809 58.0434 54.5931 48.1883C64.2957 31.7331 59.4591 12.4961 59.409 12.3038C59.3129 11.9345 58.9366 11.7139 58.5678 11.8091L58.5624 11.8105C58.1965 11.9086 57.9777 12.2837 58.0731 12.6503C58.1218 12.8373 62.8192 31.5201 53.4036 47.4869C47.8062 56.9781 38.3908 63.6498 25.4104 67.2936L27.2342 65.1877C27.4834 64.8995 27.4523 64.4635 27.1647 64.2141C26.985 64.0579 26.7471 64.0124 26.5338 64.0695C26.4052 64.104 26.2852 64.1761 26.1913 64.2842L22.1973 68.896L27.9861 71.0252Z" fill="white"/>
</svg>
