<svg width="120" height="120" viewBox="0 0 120 120" fill="none" xmlns="http://www.w3.org/2000/svg">
<path d="M22.537 84.1522C21.6771 84.1522 20.8197 83.8041 20.1944 83.1186L0.82799 61.8868C-0.275997 60.6758 -0.275997 58.8234 0.82799 57.6137L20.1944 36.3805C21.3744 35.0882 23.3797 34.9962 24.673 36.1752C25.9663 37.3555 26.0583 39.3613 24.8784 40.6536L7.45991 59.7489L24.8797 78.8456C26.0597 80.1379 25.9677 82.1437 24.6744 83.324C24.065 83.8775 23.2997 84.1522 22.537 84.1522Z" fill="black"/>
<path d="M97.4631 84.1522C96.7004 84.1522 95.9364 83.8788 95.3284 83.324C94.0351 82.1437 93.9431 80.1392 95.1231 78.8456L112.542 59.7503L95.1231 40.6536C93.9431 39.3599 94.0351 37.3541 95.3284 36.1752C96.6217 34.9962 98.6257 35.0882 99.8057 36.3805L119.172 57.6137C120.276 58.8247 120.276 60.6772 119.172 61.8868L99.8057 83.1186C99.1804 83.8041 98.323 84.1522 97.4631 84.1522Z" fill="black"/>
<path d="M81.0308 0.793527C79.6108 0.266732 78.1295 0 76.6282 0C71.299 0 66.487 3.39283 64.6564 8.44206C64.6564 8.44206 37.6687 82.9469 37.6487 83.023C37.6394 83.0523 35.7834 116.607 35.7834 116.607C35.6767 118.021 36.5287 119.332 37.866 119.812C38.2194 119.94 38.5834 120 38.9434 120C39.9473 120 40.918 119.524 41.5247 118.676C41.5247 118.676 61.5471 91.8571 61.5511 91.8465C61.5884 91.7651 88.6027 17.2522 88.6027 17.2522C91.0134 10.6146 87.6161 3.23279 81.0308 0.793527ZM56.7765 86.4878L44.726 82.0254L67.963 17.911L80.0082 22.3761L56.7765 86.4878ZM70.619 10.5853C71.5456 8.02996 73.9603 6.31354 76.6282 6.31354C77.3722 6.31354 78.1109 6.44691 78.8215 6.71097C82.1602 7.94728 83.8735 11.7122 82.6415 15.1064L82.1602 16.436L70.1176 11.9723L70.619 10.5853ZM41.99 108.245L43.7206 88.3896L53.4938 92.0092L41.99 108.245Z" fill="black"/>
</svg>
