<svg width="350" height="90" viewBox="0 0 350 90" fill="none" xmlns="http://www.w3.org/2000/svg">
<path d="M125.848 51.7681C125.848 51.0698 125.74 50.4432 125.525 49.8882C125.328 49.3153 124.952 48.7961 124.397 48.3306C123.842 47.8472 123.064 47.3727 122.061 46.9072C121.058 46.4417 119.76 45.9583 118.167 45.457C116.395 44.8841 114.712 44.2396 113.118 43.5234C111.543 42.8073 110.146 41.9748 108.929 41.0259C107.729 40.0591 106.78 38.9401 106.082 37.6689C105.402 36.3978 105.062 34.9207 105.062 33.2378C105.062 31.6086 105.42 30.1315 106.136 28.8066C106.852 27.4639 107.854 26.318 109.144 25.3691C110.433 24.4023 111.954 23.6593 113.709 23.1401C115.481 22.6209 117.424 22.3613 119.537 22.3613C122.419 22.3613 124.935 22.8805 127.083 23.9189C129.231 24.9574 130.896 26.3807 132.078 28.189C133.278 29.9972 133.877 32.0651 133.877 34.3926H125.875C125.875 33.2467 125.633 32.2441 125.149 31.3848C124.684 30.5075 123.968 29.8182 123.001 29.3169C122.052 28.8156 120.853 28.5649 119.402 28.5649C118.006 28.5649 116.842 28.7798 115.911 29.2095C114.98 29.6213 114.282 30.1852 113.816 30.9014C113.351 31.5996 113.118 32.3874 113.118 33.2646C113.118 33.9271 113.279 34.5269 113.602 35.064C113.942 35.6011 114.443 36.1024 115.105 36.5679C115.768 37.0334 116.583 37.472 117.549 37.8838C118.516 38.2956 119.635 38.6984 120.906 39.0923C123.037 39.7368 124.908 40.4619 126.519 41.2676C128.148 42.0732 129.509 42.9774 130.601 43.98C131.693 44.9826 132.517 46.1195 133.072 47.3906C133.627 48.6618 133.904 50.103 133.904 51.7144C133.904 53.4152 133.573 54.937 132.911 56.2798C132.248 57.6226 131.29 58.7594 130.037 59.6904C128.784 60.6214 127.289 61.3286 125.552 61.812C123.816 62.2954 121.873 62.5371 119.725 62.5371C117.791 62.5371 115.884 62.2865 114.004 61.7852C112.125 61.266 110.415 60.4871 108.875 59.4487C107.353 58.4103 106.136 57.0854 105.223 55.4741C104.31 53.8628 103.853 51.9561 103.853 49.7539H111.937C111.937 50.9714 112.125 52.0008 112.5 52.8423C112.876 53.6838 113.405 54.3641 114.085 54.8833C114.783 55.4025 115.607 55.7785 116.556 56.0112C117.522 56.244 118.579 56.3604 119.725 56.3604C121.121 56.3604 122.267 56.1634 123.162 55.7695C124.075 55.3757 124.747 54.8296 125.176 54.1313C125.624 53.4331 125.848 52.6453 125.848 51.7681ZM154.583 55.4473V42.5029C154.583 41.5719 154.431 40.7752 154.126 40.1128C153.822 39.4325 153.348 38.9043 152.703 38.5283C152.076 38.1523 151.262 37.9644 150.259 37.9644C149.4 37.9644 148.657 38.1165 148.03 38.4209C147.404 38.7074 146.92 39.1281 146.58 39.6831C146.24 40.2202 146.07 40.8558 146.07 41.5898H138.335C138.335 40.3545 138.622 39.1818 139.195 38.0718C139.768 36.9618 140.6 35.986 141.692 35.1445C142.785 34.2852 144.083 33.6138 145.586 33.1304C147.108 32.647 148.809 32.4053 150.689 32.4053C152.945 32.4053 154.95 32.7812 156.705 33.5332C158.459 34.2852 159.838 35.4131 160.84 36.917C161.861 38.4209 162.371 40.3008 162.371 42.5566V54.9907C162.371 56.5841 162.47 57.8911 162.667 58.9116C162.863 59.9142 163.15 60.7915 163.526 61.5435V62H155.711C155.335 61.2122 155.049 60.2275 154.852 59.0459C154.673 57.8464 154.583 56.6468 154.583 55.4473ZM155.604 44.3022L155.657 48.6797H151.333C150.313 48.6797 149.427 48.7961 148.675 49.0288C147.923 49.2616 147.305 49.5928 146.822 50.0225C146.338 50.4342 145.98 50.9176 145.748 51.4727C145.533 52.0277 145.425 52.6364 145.425 53.2988C145.425 53.9613 145.577 54.561 145.882 55.0981C146.186 55.6174 146.625 56.0291 147.198 56.3335C147.771 56.62 148.442 56.7632 149.212 56.7632C150.376 56.7632 151.387 56.5304 152.247 56.0649C153.106 55.5994 153.768 55.0265 154.234 54.3462C154.717 53.6659 154.968 53.0213 154.986 52.4126L157.027 55.689C156.74 56.423 156.347 57.1839 155.845 57.9717C155.362 58.7594 154.744 59.5024 153.992 60.2007C153.24 60.881 152.336 61.445 151.28 61.8926C150.223 62.3223 148.97 62.5371 147.52 62.5371C145.676 62.5371 144.002 62.1701 142.498 61.436C141.012 60.6841 139.83 59.6546 138.953 58.3477C138.094 57.0228 137.664 55.5189 137.664 53.8359C137.664 52.3141 137.951 50.9624 138.523 49.7808C139.096 48.5991 139.938 47.6055 141.048 46.7998C142.176 45.9762 143.581 45.3586 145.264 44.9468C146.947 44.5171 148.899 44.3022 151.119 44.3022H155.604ZM177.786 56.3604L184.231 32.9424H192.315L182.513 62H177.625L177.786 56.3604ZM173.355 32.9424L179.827 56.3872L179.961 62H175.047L165.245 32.9424H173.355ZM211.033 55.4473V42.5029C211.033 41.5719 210.881 40.7752 210.577 40.1128C210.272 39.4325 209.798 38.9043 209.153 38.5283C208.527 38.1523 207.712 37.9644 206.709 37.9644C205.85 37.9644 205.107 38.1165 204.48 38.4209C203.854 38.7074 203.37 39.1281 203.03 39.6831C202.69 40.2202 202.52 40.8558 202.52 41.5898H194.786C194.786 40.3545 195.072 39.1818 195.645 38.0718C196.218 36.9618 197.05 35.986 198.143 35.1445C199.235 34.2852 200.533 33.6138 202.037 33.1304C203.558 32.647 205.259 32.4053 207.139 32.4053C209.395 32.4053 211.4 32.7812 213.155 33.5332C214.909 34.2852 216.288 35.4131 217.291 36.917C218.311 38.4209 218.821 40.3008 218.821 42.5566V54.9907C218.821 56.5841 218.92 57.8911 219.117 58.9116C219.314 59.9142 219.6 60.7915 219.976 61.5435V62H212.161C211.785 61.2122 211.499 60.2275 211.302 59.0459C211.123 57.8464 211.033 56.6468 211.033 55.4473ZM212.054 44.3022L212.107 48.6797H207.784C206.763 48.6797 205.877 48.7961 205.125 49.0288C204.373 49.2616 203.755 49.5928 203.272 50.0225C202.789 50.4342 202.431 50.9176 202.198 51.4727C201.983 52.0277 201.875 52.6364 201.875 53.2988C201.875 53.9613 202.028 54.561 202.332 55.0981C202.636 55.6174 203.075 56.0291 203.648 56.3335C204.221 56.62 204.892 56.7632 205.662 56.7632C206.826 56.7632 207.837 56.5304 208.697 56.0649C209.556 55.5994 210.219 55.0265 210.684 54.3462C211.167 53.6659 211.418 53.0213 211.436 52.4126L213.477 55.689C213.191 56.423 212.797 57.1839 212.295 57.9717C211.812 58.7594 211.194 59.5024 210.442 60.2007C209.69 60.881 208.786 61.445 207.73 61.8926C206.674 62.3223 205.42 62.5371 203.97 62.5371C202.126 62.5371 200.452 62.1701 198.948 61.436C197.462 60.6841 196.281 59.6546 195.403 58.3477C194.544 57.0228 194.114 55.5189 194.114 53.8359C194.114 52.3141 194.401 50.9624 194.974 49.7808C195.547 48.5991 196.388 47.6055 197.498 46.7998C198.626 45.9762 200.031 45.3586 201.714 44.9468C203.397 44.5171 205.349 44.3022 207.569 44.3022H212.054ZM247.933 49.0288H255.962C255.801 51.6606 255.076 53.9971 253.787 56.0381C252.516 58.0791 250.735 59.6725 248.443 60.8184C246.169 61.9642 243.43 62.5371 240.225 62.5371C237.719 62.5371 235.472 62.1074 233.484 61.248C231.497 60.3708 229.796 59.1175 228.382 57.4883C226.985 55.859 225.92 53.8896 225.186 51.5801C224.452 49.2705 224.085 46.6834 224.085 43.8188V41.1064C224.085 38.2419 224.461 35.6548 225.213 33.3452C225.983 31.0177 227.075 29.0394 228.489 27.4102C229.922 25.7809 231.631 24.5277 233.619 23.6504C235.606 22.7731 237.826 22.3345 240.279 22.3345C243.537 22.3345 246.285 22.9253 248.523 24.1069C250.779 25.2886 252.525 26.9178 253.76 28.9946C255.014 31.0715 255.765 33.4347 256.016 36.0845H247.959C247.87 34.509 247.557 33.1751 247.02 32.083C246.482 30.973 245.668 30.1405 244.576 29.5854C243.501 29.0125 242.069 28.7261 240.279 28.7261C238.936 28.7261 237.763 28.9767 236.761 29.478C235.758 29.9793 234.917 30.7402 234.236 31.7607C233.556 32.7812 233.046 34.0703 232.706 35.6279C232.383 37.1676 232.222 38.9759 232.222 41.0527V43.8188C232.222 45.842 232.374 47.6234 232.679 49.1631C232.983 50.6849 233.449 51.974 234.075 53.0303C234.72 54.0687 235.543 54.8564 236.546 55.3936C237.566 55.9128 238.793 56.1724 240.225 56.1724C241.908 56.1724 243.296 55.9038 244.388 55.3667C245.48 54.8296 246.312 54.0329 246.885 52.9766C247.476 51.9202 247.825 50.6043 247.933 49.0288ZM259.534 47.7666V47.2026C259.534 45.0721 259.839 43.1117 260.447 41.3213C261.056 39.513 261.942 37.9465 263.106 36.6216C264.27 35.2967 265.702 34.2673 267.403 33.5332C269.104 32.7812 271.055 32.4053 273.257 32.4053C275.459 32.4053 277.42 32.7812 279.139 33.5332C280.857 34.2673 282.299 35.2967 283.462 36.6216C284.644 37.9465 285.539 39.513 286.148 41.3213C286.757 43.1117 287.061 45.0721 287.061 47.2026V47.7666C287.061 49.8792 286.757 51.8397 286.148 53.6479C285.539 55.4383 284.644 57.0049 283.462 58.3477C282.299 59.6725 280.866 60.702 279.166 61.436C277.465 62.1701 275.513 62.5371 273.311 62.5371C271.109 62.5371 269.148 62.1701 267.43 61.436C265.729 60.702 264.288 59.6725 263.106 58.3477C261.942 57.0049 261.056 55.4383 260.447 53.6479C259.839 51.8397 259.534 49.8792 259.534 47.7666ZM267.269 47.2026V47.7666C267.269 48.984 267.376 50.1209 267.591 51.1772C267.806 52.2336 268.146 53.1646 268.611 53.9702C269.095 54.758 269.721 55.3757 270.491 55.8232C271.261 56.2708 272.201 56.4946 273.311 56.4946C274.385 56.4946 275.307 56.2708 276.077 55.8232C276.847 55.3757 277.465 54.758 277.93 53.9702C278.396 53.1646 278.736 52.2336 278.951 51.1772C279.183 50.1209 279.3 48.984 279.3 47.7666V47.2026C279.3 46.021 279.183 44.911 278.951 43.8726C278.736 42.8162 278.387 41.8853 277.903 41.0796C277.438 40.256 276.82 39.6115 276.05 39.146C275.28 38.6805 274.349 38.4478 273.257 38.4478C272.165 38.4478 271.234 38.6805 270.464 39.146C269.712 39.6115 269.095 40.256 268.611 41.0796C268.146 41.8853 267.806 42.8162 267.591 43.8726C267.376 44.911 267.269 46.021 267.269 47.2026ZM308.975 55.6621V20.75H316.763V62H309.754L308.975 55.6621ZM290.606 47.8203V47.2563C290.606 45.0363 290.857 43.0221 291.358 41.2139C291.859 39.3877 292.593 37.8211 293.56 36.5142C294.527 35.2072 295.717 34.1956 297.132 33.4795C298.546 32.7633 300.158 32.4053 301.966 32.4053C303.667 32.4053 305.153 32.7633 306.424 33.4795C307.713 34.1956 308.805 35.2161 309.7 36.541C310.613 37.848 311.347 39.3966 311.902 41.187C312.457 42.9595 312.86 44.902 313.111 47.0146V48.25C312.86 50.2731 312.457 52.153 311.902 53.8896C311.347 55.6263 310.613 57.1481 309.7 58.4551C308.805 59.7441 307.713 60.7467 306.424 61.4629C305.135 62.179 303.631 62.5371 301.912 62.5371C300.104 62.5371 298.493 62.1701 297.078 61.436C295.682 60.702 294.5 59.6725 293.533 58.3477C292.584 57.0228 291.859 55.4652 291.358 53.6748C290.857 51.8844 290.606 49.9329 290.606 47.8203ZM298.34 47.2563V47.8203C298.34 49.0199 298.43 50.1388 298.609 51.1772C298.806 52.2157 299.119 53.1377 299.549 53.9434C299.996 54.7311 300.569 55.3488 301.268 55.7964C301.984 56.2261 302.852 56.4409 303.873 56.4409C305.197 56.4409 306.29 56.1455 307.149 55.5547C308.008 54.946 308.662 54.1134 309.109 53.0571C309.575 52.0008 309.843 50.7834 309.915 49.4048V45.8867C309.861 44.7588 309.7 43.7472 309.432 42.8521C309.181 41.939 308.805 41.1602 308.304 40.5156C307.82 39.8711 307.212 39.3698 306.478 39.0117C305.761 38.6536 304.911 38.4746 303.926 38.4746C302.924 38.4746 302.064 38.7074 301.348 39.1729C300.632 39.6204 300.05 40.2381 299.603 41.0259C299.173 41.8136 298.851 42.7446 298.636 43.8188C298.439 44.8752 298.34 46.021 298.34 47.2563ZM336.18 62.5371C333.924 62.5371 331.901 62.179 330.11 61.4629C328.32 60.7288 326.798 59.7173 325.545 58.4282C324.31 57.1392 323.361 55.6442 322.698 53.9434C322.036 52.2246 321.705 50.3984 321.705 48.4648V47.3906C321.705 45.1885 322.018 43.1743 322.645 41.3481C323.271 39.522 324.166 37.9375 325.33 36.5947C326.512 35.252 327.944 34.2225 329.627 33.5063C331.31 32.7723 333.208 32.4053 335.32 32.4053C337.379 32.4053 339.205 32.7454 340.799 33.4258C342.392 34.1061 343.726 35.0729 344.8 36.3262C345.892 37.5794 346.716 39.0833 347.271 40.8379C347.826 42.5745 348.104 44.5081 348.104 46.6387V49.8613H325.008V44.7051H340.503V44.1143C340.503 43.04 340.306 42.0822 339.913 41.2407C339.537 40.3813 338.964 39.701 338.194 39.1997C337.424 38.6984 336.439 38.4478 335.24 38.4478C334.219 38.4478 333.342 38.6715 332.608 39.1191C331.874 39.5667 331.274 40.1934 330.809 40.999C330.361 41.8047 330.021 42.7536 329.788 43.8457C329.573 44.9199 329.466 46.1016 329.466 47.3906V48.4648C329.466 49.6286 329.627 50.7028 329.949 51.6875C330.289 52.6722 330.764 53.5226 331.373 54.2388C331.999 54.9549 332.751 55.5099 333.628 55.9038C334.524 56.2977 335.535 56.4946 336.663 56.4946C338.06 56.4946 339.358 56.2261 340.557 55.689C341.775 55.134 342.822 54.3014 343.699 53.1914L347.459 57.2734C346.85 58.1507 346.018 58.9922 344.961 59.7979C343.923 60.6035 342.67 61.266 341.202 61.7852C339.734 62.2865 338.06 62.5371 336.18 62.5371Z" fill="#FEB700"/>
<path d="M16.9026 63.1141C16.2576 63.1141 15.6147 62.853 15.1457 62.3389L0.620986 46.415C-0.206995 45.5068 -0.206995 44.1174 0.620986 43.2102L15.1457 27.2853C16.0306 26.3161 17.5346 26.2471 18.5046 27.1313C19.4746 28.0165 19.5436 29.5209 18.6586 30.4901L5.59488 44.8116L18.6596 59.1341C19.5446 60.1033 19.4756 61.6077 18.5056 62.4929C18.0486 62.908 17.4746 63.1141 16.9026 63.1141Z" fill="#FEB700"/>
<path d="M73.0973 63.1141C72.5253 63.1141 71.9523 62.909 71.4963 62.4929C70.5263 61.6077 70.4573 60.1043 71.3423 59.1341L84.406 44.8126L71.3423 30.4901C70.4573 29.5199 70.5263 28.0155 71.4963 27.1313C72.4663 26.2471 73.9693 26.3161 74.8542 27.2853L89.3789 43.2102C90.2069 44.1184 90.2069 45.5078 89.3789 46.415L74.8542 62.3389C74.3852 62.853 73.7423 63.1141 73.0973 63.1141Z" fill="#FEB700"/>
<path d="M60.7716 0.595145C59.7066 0.200049 58.5956 0 57.4696 0C53.4727 0 49.8638 2.54462 48.4908 6.33155C48.4908 6.33155 28.2503 62.2102 28.2353 62.2672C28.2283 62.2892 26.8363 87.4554 26.8363 87.4554C26.7563 88.5156 27.3953 89.4989 28.3983 89.859C28.6633 89.955 28.9363 90 29.2063 90C29.9593 90 30.6872 89.6429 31.1422 89.0068C31.1422 89.0068 46.1589 68.8928 46.1619 68.8848C46.1899 68.8238 66.4505 12.9392 66.4505 12.9392C68.2584 7.96095 65.7105 2.42459 60.7716 0.595145ZM42.581 64.8659L33.5432 61.519L50.9708 13.4333L60.0046 16.7821L42.581 64.8659ZM52.9627 7.93894C53.6577 6.02247 55.4687 4.73516 57.4696 4.73516C58.0276 4.73516 58.5816 4.83518 59.1146 5.03323C61.6186 5.96046 62.9035 8.78415 61.9795 11.3298L61.6186 12.327L52.5868 8.97919L52.9627 7.93894ZM31.4912 81.1838L32.7892 66.2922L40.119 69.0069L31.4912 81.1838Z" fill="#FEB700"/>
</svg>
